<svg width="24" height="24" viewBox="0 0 24 24" fill="none" xmlns="http://www.w3.org/2000/svg">
<path fill-rule="evenodd" clip-rule="evenodd" d="M16.0007 16.7077C14.4083 18.1332 12.3054 19 10 19C5.02944 19 1 14.9706 1 10C1 5.02944 5.02944 1 10 1C14.9706 1 19 5.02944 19 10C19 12.3054 18.1332 14.4083 16.7078 16.0006L22.0104 21.3033C22.2057 21.4986 22.2057 21.8151 22.0104 22.0104C21.8152 22.2057 21.4986 22.2057 21.3033 22.0104L16.0007 16.7077ZM18 10C18 14.4183 14.4183 18 10 18C5.58172 18 2 14.4183 2 10C2 5.58172 5.58172 2 10 2C14.4183 2 18 5.58172 18 10Z" fill="#3B3F61"/>
</svg>
